<svg xmlns="http://www.w3.org/2000/svg" xmlns:v="https://svgstorm.com"
viewBox = "0 0 708 746"
width="708"
height="746">
<g fill="None" fill-opacity="0.0" stroke="#000000" stroke-opacity="0.00" stroke-width="0.3"><path d="
M 0.00 525.00 
C 9.40 481.34 13.03 430.94 22.33 387.33 C 31.63 343.72 32.08 292.12 47.77 251.77 C 63.46 211.42 104.22 187.28 147.00 190.00 C 189.78 192.72 238.89 210.80 282.00 216.00
C 283.82 185.47 289.91 148.90 292.00 119.00 C 294.09 89.10 301.08 60.90 318.75 37.75 C 336.43 14.61 361.63 1.00 390.00 1.00
C 389.96 1.00 390.00 0.00 390.00 0.00
L 0.00 0.00
L 0.00 525.00 Z"/>
</g>
<g fill="None" fill-opacity="0.0" stroke="#DD0303" stroke-opacity="0.26" stroke-width="0.3"><path d="
M 390.00 1.00 
C 432.50 1.00 476.32 1.83 518.00 0.00
L 390.00 0.00
C 390.00 0.00 389.96 1.00 390.00 1.00 Z"/>
</g>
<g fill="None" fill-opacity="0.0" stroke="#DF0907" stroke-opacity="0.99" stroke-width="0.3"><path d="
M 390.00 1.00 
C 361.63 1.00 336.43 14.61 318.75 37.75 C 301.08 60.90 294.09 89.10 292.00 119.00 C 289.91 148.90 283.82 185.47 282.00 216.00
C 281.47 224.80 279.90 233.05 280.00 242.00
C 234.38 238.26 185.44 214.44 138.98 219.98 C 92.51 225.52 67.51 264.20 61.67 307.67 C 55.83 351.14 45.10 405.63 39.00 450.00 C 32.91 494.38 14.34 546.09 49.00 584.00
C 52.37 587.65 56.52 591.52 60.00 595.00
C 79.44 611.61 104.44 621.70 126.23 634.77 C 148.01 647.85 173.40 667.00 200.00 667.00
C 204.00 667.00 208.00 667.08 212.00 667.00
C 222.84 666.78 234.92 662.85 244.22 658.22 C 253.52 653.60 260.83 648.43 268.25 641.25 C 275.67 634.06 281.90 627.87 287.75 619.75 C 293.61 611.64 299.54 603.57 305.30 595.30 C 311.06 587.03 317.09 580.34 322.75 571.75 C 328.42 563.16 334.43 557.25 339.92 547.92 C 345.41 538.58 352.20 535.35 357.25 524.25 C 362.30 513.16 377.24 515.27 388.00 513.00
C 416.53 506.99 443.91 493.09 472.02 485.02 C 500.14 476.96 527.76 465.62 555.68 456.68 C 583.60 447.73 611.74 438.45 639.22 428.22 C 666.70 418.00 682.16 398.52 694.92 371.92 C 707.69 345.33 701.31 305.23 689.08 278.92 C 676.84 252.62 669.59 224.31 658.22 197.78 C 646.86 171.24 638.49 143.18 627.22 116.78 C 615.96 90.37 610.60 62.55 592.75 39.25 C 574.89 15.96 546.80 2.83 519.00 0.00
L 518.00 0.00
C 476.32 1.83 432.50 1.00 390.00 1.00
M 517.00 28.00 
C 541.66 30.39 567.89 46.67 581.75 69.25 C 595.61 91.83 602.26 120.23 612.78 145.22 C 623.29 170.22 632.17 196.75 642.31 222.69 C 652.45 248.64 662.23 273.44 671.33 300.67 C 680.43 327.91 672.19 360.49 654.25 383.25 C 636.30 406.01 610.70 412.06 584.98 420.98 C 559.25 429.89 531.03 438.82 504.98 447.98 C 478.92 457.13 450.94 465.48 424.98 474.98 C 399.01 484.47 364.68 494.89 338.32 481.68 C 311.96 468.46 296.09 455.65 285.68 427.32 C 275.27 398.99 284.27 363.53 287.00 333.00 C 289.73 302.47 293.90 267.12 297.33 236.33 C 300.76 205.54 303.97 169.60 307.33 139.33 C 310.69 109.06 313.59 82.23 333.77 58.77 C 353.95 35.31 378.04 25.77 410.00 28.00 C 441.96 30.23 484.26 24.83 517.00 28.00
M 262.00 408.00 
C 262.00 412.33 262.00 416.67 262.00 421.00
C 262.00 464.59 300.50 502.06 340.00 513.00
C 322.59 538.11 303.31 560.55 286.25 586.25 C 269.19 611.94 239.72 637.50 207.00 634.00 C 174.28 630.50 148.05 607.05 120.30 592.70 C 92.55 578.35 63.22 559.71 61.01 524.99 C 58.80 490.28 69.48 448.31 74.99 413.99 C 80.50 379.67 84.68 337.29 93.78 304.78 C 102.87 272.26 134.65 251.00 168.00 252.00 C 201.35 253.00 241.97 269.56 276.00 272.00
C 271.89 317.46 265.90 362.46 262.00 408.00 Z"/>
</g>
<g fill="None" fill-opacity="0.0" stroke="#000000" stroke-opacity="0.00" stroke-width="0.3"><path d="
M 388.00 513.00 
C 378.56 519.61 374.64 533.89 366.25 542.25 C 357.86 550.60 352.74 563.63 344.70 572.70 C 336.65 581.77 330.67 592.52 323.08 602.08 C 315.49 611.64 308.77 622.52 301.23 632.23 C 293.69 641.94 287.73 651.74 278.75 660.75 C 269.76 669.75 260.66 676.97 249.30 683.30 C 237.95 689.64 224.79 694.66 210.99 695.99 C 197.20 697.32 177.63 694.82 165.32 689.68 C 153.01 684.53 143.53 678.09 132.25 671.75 C 120.98 665.40 110.29 659.18 99.25 652.75 C 88.22 646.32 77.83 640.56 66.92 634.08 C 56.01 627.60 44.94 622.40 35.25 613.75 C 25.56 605.10 18.95 596.55 12.70 585.31 C 6.44 574.06 1.58 558.63 0.00 546.00
L 0.00 746.00
L 525.00 746.00
C 460.03 740.28 412.41 674.16 423.33 610.33 C 434.25 546.50 499.75 500.28 564.00 517.00
C 610.05 469.11 701.16 503.75 708.00 568.00
L 708.00 0.00
L 519.00 0.00
C 546.80 2.83 574.89 15.96 592.75 39.25 C 610.60 62.55 615.96 90.37 627.22 116.78 C 638.49 143.18 646.86 171.24 658.22 197.78 C 669.59 224.31 676.84 252.62 689.08 278.92 C 701.31 305.23 707.69 345.33 694.92 371.92 C 682.16 398.52 666.70 418.00 639.22 428.22 C 611.74 438.45 583.60 447.73 555.68 456.68 C 527.76 465.62 500.14 476.96 472.02 485.02 C 443.91 493.09 416.53 506.99 388.00 513.00 Z"/>
</g>
<g fill="None" fill-opacity="0.0" stroke="#FD5F5F" stroke-opacity="1.00" stroke-width="0.3"><path d="
M 517.00 28.00 
C 484.26 24.83 441.96 30.23 410.00 28.00 C 378.04 25.77 353.95 35.31 333.77 58.77 C 313.59 82.23 310.69 109.06 307.33 139.33 C 303.97 169.60 300.76 205.54 297.33 236.33 C 293.90 267.12 289.73 302.47 287.00 333.00 C 284.27 363.53 275.27 398.99 285.68 427.32 C 296.09 455.65 311.96 468.46 338.32 481.68 C 364.68 494.89 399.01 484.47 424.98 474.98 C 450.94 465.48 478.92 457.13 504.98 447.98 C 531.03 438.82 559.25 429.89 584.98 420.98 C 610.70 412.06 636.30 406.01 654.25 383.25 C 672.19 360.49 680.43 327.91 671.33 300.67 C 662.23 273.44 652.45 248.64 642.31 222.69 C 632.17 196.75 623.29 170.22 612.78 145.22 C 602.26 120.23 595.61 91.83 581.75 69.25 C 567.89 46.67 541.66 30.39 517.00 28.00
M 377.00 469.00 
C 374.18 469.27 370.76 469.27 368.00 469.00
C 338.55 469.00 316.80 452.85 300.70 427.30 C 284.59 401.76 292.17 365.01 295.78 334.78 C 299.39 304.55 302.38 266.92 306.00 236.00 C 309.61 205.08 312.98 168.25 316.93 137.93 C 320.88 107.60 330.14 85.01 356.08 67.08 C 382.02 49.15 421.99 56.56 453.00 55.00 C 484.01 53.44 520.37 53.41 543.75 73.25 C 567.12 93.09 572.71 116.59 582.77 143.23 C 592.84 169.87 603.01 195.51 612.78 222.22 C 622.54 248.94 634.21 275.02 642.78 302.22 C 651.34 329.43 640.22 364.28 619.25 383.25 C 598.27 402.22 569.69 407.73 543.32 416.32 C 516.96 424.91 489.17 436.85 461.93 443.93 C 434.68 451.00 405.96 469.00 377.00 469.00 Z"/>
</g>
<g fill="None" fill-opacity="0.0" stroke="#010C3A" stroke-opacity="1.00" stroke-width="0.3"><path d="
M 368.00 469.00 
C 371.00 469.00 374.00 469.00 377.00 469.00
C 405.96 469.00 434.68 451.00 461.93 443.93 C 489.17 436.85 516.96 424.91 543.32 416.32 C 569.69 407.73 598.27 402.22 619.25 383.25 C 640.22 364.28 651.34 329.43 642.78 302.22 C 634.21 275.02 622.54 248.94 612.78 222.22 C 603.01 195.51 592.84 169.87 582.77 143.23 C 572.71 116.59 567.12 93.09 543.75 73.25 C 520.37 53.41 484.01 53.44 453.00 55.00 C 421.99 56.56 382.02 49.15 356.08 67.08 C 330.14 85.01 320.88 107.60 316.93 137.93 C 312.98 168.25 309.61 205.08 306.00 236.00 C 302.38 266.92 299.39 304.55 295.78 334.78 C 292.17 365.01 284.59 401.76 300.70 427.30 C 316.80 452.85 338.55 469.00 368.00 469.00 Z"/>
</g>
<g fill="None" fill-opacity="0.0" stroke="#EEEDED" stroke-opacity="0.98" stroke-width="0.3"><path d="
M 0.00 525.00 
L 0.00 527.00
C 1.62 531.93 1.69 540.15 0.00 545.00
L 0.00 546.00
C 1.58 558.63 6.44 574.06 12.70 585.31 C 18.95 596.55 25.56 605.10 35.25 613.75 C 44.94 622.40 56.01 627.60 66.92 634.08 C 77.83 640.56 88.22 646.32 99.25 652.75 C 110.29 659.18 120.98 665.40 132.25 671.75 C 143.53 678.09 153.01 684.53 165.32 689.68 C 177.63 694.82 197.20 697.32 210.99 695.99 C 224.79 694.66 237.95 689.64 249.30 683.30 C 260.66 676.97 269.76 669.75 278.75 660.75 C 287.73 651.74 293.69 641.94 301.23 632.23 C 308.77 622.52 315.49 611.64 323.08 602.08 C 330.67 592.52 336.65 581.77 344.70 572.70 C 352.74 563.63 357.86 550.60 366.25 542.25 C 374.64 533.89 378.56 519.61 388.00 513.00
C 377.24 515.27 362.30 513.16 357.25 524.25 C 352.20 535.35 345.41 538.58 339.92 547.92 C 334.43 557.25 328.42 563.16 322.75 571.75 C 317.09 580.34 311.06 587.03 305.30 595.30 C 299.54 603.57 293.61 611.64 287.75 619.75 C 281.90 627.87 275.67 634.06 268.25 641.25 C 260.83 648.43 253.52 653.60 244.22 658.22 C 234.92 662.85 222.84 666.78 212.00 667.00
C 208.15 667.47 203.76 667.36 200.00 667.00
C 173.40 667.00 148.01 647.85 126.23 634.77 C 104.44 621.70 79.44 611.61 60.00 595.00
C 56.09 591.66 52.16 588.00 49.00 584.00
C 14.34 546.09 32.91 494.38 39.00 450.00 C 45.10 405.63 55.83 351.14 61.67 307.67 C 67.51 264.20 92.51 225.52 138.98 219.98 C 185.44 214.44 234.38 238.26 280.00 242.00
C 279.90 233.05 281.47 224.80 282.00 216.00
C 238.89 210.80 189.78 192.72 147.00 190.00 C 104.22 187.28 63.46 211.42 47.77 251.77 C 32.08 292.12 31.63 343.72 22.33 387.33 C 13.03 430.94 9.40 481.34 0.00 525.00 Z"/>
</g>
<g fill="None" fill-opacity="0.0" stroke="#EDEDED" stroke-opacity="1.00" stroke-width="0.3"><path d="
M 262.00 421.00 
C 261.60 416.91 261.61 412.02 262.00 408.00
C 265.90 362.46 271.89 317.46 276.00 272.00
C 241.97 269.56 201.35 253.00 168.00 252.00 C 134.65 251.00 102.87 272.26 93.78 304.78 C 84.68 337.29 80.50 379.67 74.99 413.99 C 69.48 448.31 58.80 490.28 61.01 524.99 C 63.22 559.71 92.55 578.35 120.30 592.70 C 148.05 607.05 174.28 630.50 207.00 634.00 C 239.72 637.50 269.19 611.94 286.25 586.25 C 303.31 560.55 322.59 538.11 340.00 513.00
C 300.50 502.06 262.00 464.59 262.00 421.00 Z"/>
</g>
<g fill="None" fill-opacity="0.0" stroke="#E88887" stroke-opacity="1.00" stroke-width="0.3"><path d="
M 262.00 421.00 
C 262.00 416.67 262.00 412.33 262.00 408.00
C 261.61 412.02 261.60 416.91 262.00 421.00 Z"/>
</g>
<g fill="None" fill-opacity="0.0" stroke="#8F3B4F" stroke-opacity="1.00" stroke-width="0.3"><path d="
M 377.00 469.00 
C 374.00 469.00 371.00 469.00 368.00 469.00
C 370.76 469.27 374.18 469.27 377.00 469.00 Z"/>
</g>
<g fill="None" fill-opacity="0.0" stroke="#EDEDED" stroke-opacity="0.95" stroke-width="0.3"><path d="
M 564.00 517.00 
C 556.24 525.07 549.44 533.55 544.00 543.00
C 513.60 595.85 558.10 666.82 617.00 668.00
C 627.89 668.22 638.77 666.57 649.00 664.00
C 680.11 656.18 702.55 624.53 708.00 595.00
L 708.00 568.00
C 701.16 503.75 610.05 469.11 564.00 517.00
M 654.00 638.00 
C 645.33 643.94 634.97 646.80 624.00 647.00
C 600.07 647.43 579.91 636.02 566.25 615.75 C 552.58 595.49 555.59 566.47 567.00 546.00
C 572.00 537.03 580.09 529.81 589.00 525.00
C 620.34 508.09 659.13 517.11 677.92 549.08 C 696.71 581.04 683.46 617.79 654.00 638.00 Z"/>
</g>
<g fill="None" fill-opacity="0.0" stroke="#010C3A" stroke-opacity="0.96" stroke-width="0.3"><path d="
M 525.00 746.00 
L 531.00 746.00
C 534.60 744.41 541.47 744.29 545.00 746.00
L 551.00 746.00
C 558.27 744.23 567.90 742.93 575.07 740.07 C 582.25 737.22 589.62 735.08 596.08 731.08 C 602.53 727.07 607.73 723.13 613.70 718.70 C 619.67 714.26 623.12 708.31 628.25 703.25 C 633.38 698.19 635.67 690.68 640.31 685.31 C 644.94 679.93 644.58 668.78 649.00 664.00
C 638.77 666.57 627.89 668.22 617.00 668.00
C 611.98 670.48 611.44 681.36 606.08 685.08 C 600.73 688.80 597.24 695.78 591.30 699.30 C 585.37 702.83 580.25 707.88 573.31 710.31 C 566.36 712.73 559.50 715.69 551.78 716.78 C 544.06 717.87 532.72 718.28 525.00 717.00 C 517.28 715.72 509.63 712.98 502.78 710.22 C 495.92 707.47 490.83 704.12 485.25 699.75 C 479.66 695.38 474.98 691.30 470.25 685.75 C 465.52 680.21 462.64 674.51 459.08 667.92 C 455.51 661.34 453.71 653.59 452.01 645.99 C 450.31 638.39 450.04 628.84 451.00 621.00 C 451.96 613.15 453.83 604.73 456.78 597.78 C 459.73 590.83 462.37 584.58 466.92 578.92 C 471.47 573.25 474.74 569.01 480.25 564.25 C 485.76 559.49 490.68 555.66 497.23 552.23 C 503.78 548.80 511.18 546.19 518.67 544.67 C 526.16 543.16 536.26 540.78 544.00 543.00
C 549.44 533.55 556.24 525.07 564.00 517.00
C 499.75 500.28 434.25 546.50 423.33 610.33 C 412.41 674.16 460.03 740.28 525.00 746.00 Z"/>
</g>
<g fill="None" fill-opacity="0.0" stroke="#000000" stroke-opacity="0.00" stroke-width="0.3"><path d="
M 589.00 525.00 
C 595.02 525.12 600.90 533.68 606.75 536.25 C 612.59 538.83 617.66 545.59 622.75 550.25 C 627.85 554.91 631.93 561.35 635.77 567.23 C 639.61 573.11 643.36 579.26 645.78 586.22 C 648.19 593.19 652.02 601.92 652.33 609.67 C 652.64 617.42 657.09 630.04 654.00 638.00
C 683.46 617.79 696.71 581.04 677.92 549.08 C 659.13 517.11 620.34 508.09 589.00 525.00 Z"/>
</g>
<g fill="None" fill-opacity="0.0" stroke="#010C3A" stroke-opacity="0.96" stroke-width="0.3"><path d="
M 567.00 546.00 
C 567.79 550.53 580.66 551.83 584.23 555.77 C 587.80 559.71 595.61 562.43 599.25 567.75 C 602.89 573.08 608.52 576.32 611.75 582.25 C 614.99 588.18 618.13 593.54 620.77 600.23 C 623.41 606.92 623.98 615.49 625.00 623.00 C 626.02 630.51 625.72 639.37 624.00 647.00
C 634.97 646.80 645.33 643.94 654.00 638.00
C 657.09 630.04 652.64 617.42 652.33 609.67 C 652.02 601.92 648.19 593.19 645.78 586.22 C 643.36 579.26 639.61 573.11 635.77 567.23 C 631.93 561.35 627.85 554.91 622.75 550.25 C 617.66 545.59 612.59 538.83 606.75 536.25 C 600.90 533.68 595.02 525.12 589.00 525.00
C 580.09 529.81 572.00 537.03 567.00 546.00 Z"/>
</g>
<g fill="None" fill-opacity="0.0" stroke="#EDEDED" stroke-opacity="0.41" stroke-width="0.3"><path d="
M 0.00 545.00 
C 1.69 540.15 1.62 531.93 0.00 527.00
L 0.00 545.00 Z"/>
</g>
<g fill="None" fill-opacity="0.0" stroke="#000000" stroke-opacity="0.00" stroke-width="0.3"><path d="
M 617.00 668.00 
C 558.10 666.82 513.60 595.85 544.00 543.00
C 536.26 540.78 526.16 543.16 518.67 544.67 C 511.18 546.19 503.78 548.80 497.23 552.23 C 490.68 555.66 485.76 559.49 480.25 564.25 C 474.74 569.01 471.47 573.25 466.92 578.92 C 462.37 584.58 459.73 590.83 456.78 597.78 C 453.83 604.73 451.96 613.15 451.00 621.00 C 450.04 628.84 450.31 638.39 452.01 645.99 C 453.71 653.59 455.51 661.34 459.08 667.92 C 462.64 674.51 465.52 680.21 470.25 685.75 C 474.98 691.30 479.66 695.38 485.25 699.75 C 490.83 704.12 495.92 707.47 502.78 710.22 C 509.63 712.98 517.28 715.72 525.00 717.00 C 532.72 718.28 544.06 717.87 551.78 716.78 C 559.50 715.69 566.36 712.73 573.31 710.31 C 580.25 707.88 585.37 702.83 591.30 699.30 C 597.24 695.78 600.73 688.80 606.08 685.08 C 611.44 681.36 611.98 670.48 617.00 668.00 Z"/>
</g>
<g fill="None" fill-opacity="0.0" stroke="#000000" stroke-opacity="0.00" stroke-width="0.3"><path d="
M 624.00 647.00 
C 625.72 639.37 626.02 630.51 625.00 623.00 C 623.98 615.49 623.41 606.92 620.77 600.23 C 618.13 593.54 614.99 588.18 611.75 582.25 C 608.52 576.32 602.89 573.08 599.25 567.75 C 595.61 562.43 587.80 559.71 584.23 555.77 C 580.66 551.83 567.79 550.53 567.00 546.00
C 555.59 566.47 552.58 595.49 566.25 615.75 C 579.91 636.02 600.07 647.43 624.00 647.00 Z"/>
</g>
<g fill="None" fill-opacity="0.0" stroke="#E88584" stroke-opacity="1.00" stroke-width="0.3"><path d="
M 60.00 595.00 
C 56.52 591.52 52.37 587.65 49.00 584.00
C 52.16 588.00 56.09 591.66 60.00 595.00 Z"/>
</g>
<g fill="None" fill-opacity="0.0" stroke="#000000" stroke-opacity="0.00" stroke-width="0.3"><path d="
M 649.00 664.00 
C 644.58 668.78 644.94 679.93 640.31 685.31 C 635.67 690.68 633.38 698.19 628.25 703.25 C 623.12 708.31 619.67 714.26 613.70 718.70 C 607.73 723.13 602.53 727.07 596.08 731.08 C 589.62 735.08 582.25 737.22 575.07 740.07 C 567.90 742.93 558.27 744.23 551.00 746.00
L 708.00 746.00
L 708.00 595.00
C 702.55 624.53 680.11 656.18 649.00 664.00 Z"/>
</g>
<g fill="None" fill-opacity="0.0" stroke="#E9A2A2" stroke-opacity="1.00" stroke-width="0.3"><path d="
M 212.00 667.00 
C 208.00 667.08 204.00 667.00 200.00 667.00
C 203.76 667.36 208.15 667.47 212.00 667.00 Z"/>
</g>
<g fill="None" fill-opacity="0.0" stroke="#010C3A" stroke-opacity="0.67" stroke-width="0.3"><path d="
M 531.00 746.00 
L 545.00 746.00
C 541.47 744.29 534.60 744.41 531.00 746.00 Z"/>
</g>
<g fill="#000000" fill-opacity="0.00" stroke="None">
<path d="
M 0.00 525.00 
C 9.40 481.34 13.03 430.94 22.33 387.33 C 31.63 343.72 32.08 292.12 47.77 251.77 C 63.46 211.42 104.22 187.28 147.00 190.00 C 189.78 192.72 238.89 210.80 282.00 216.00
C 283.82 185.47 289.91 148.90 292.00 119.00 C 294.09 89.10 301.08 60.90 318.75 37.75 C 336.43 14.61 361.63 1.00 390.00 1.00
C 389.96 1.00 390.00 0.00 390.00 0.00
L 0.00 0.00
L 0.00 525.00 Z"/>
</g>
<g fill="#DD0303" fill-opacity="0.26" stroke="None">
<path d="
M 390.00 1.00 
C 432.50 1.00 476.32 1.83 518.00 0.00
L 390.00 0.00
C 390.00 0.00 389.96 1.00 390.00 1.00 Z"/>
</g>
<g fill="#DF0907" fill-opacity="0.99" stroke="None">
<path d="
M 390.00 1.00 
C 361.63 1.00 336.43 14.61 318.75 37.75 C 301.08 60.90 294.09 89.10 292.00 119.00 C 289.91 148.90 283.82 185.47 282.00 216.00
C 281.47 224.80 279.90 233.05 280.00 242.00
C 234.38 238.26 185.44 214.44 138.98 219.98 C 92.51 225.52 67.51 264.20 61.67 307.67 C 55.83 351.14 45.10 405.63 39.00 450.00 C 32.91 494.38 14.34 546.09 49.00 584.00
C 52.37 587.65 56.52 591.52 60.00 595.00
C 79.44 611.61 104.44 621.70 126.23 634.77 C 148.01 647.85 173.40 667.00 200.00 667.00
C 204.00 667.00 208.00 667.08 212.00 667.00
C 222.84 666.78 234.92 662.85 244.22 658.22 C 253.52 653.60 260.83 648.43 268.25 641.25 C 275.67 634.06 281.90 627.87 287.75 619.75 C 293.61 611.64 299.54 603.57 305.30 595.30 C 311.06 587.03 317.09 580.34 322.75 571.75 C 328.42 563.16 334.43 557.25 339.92 547.92 C 345.41 538.58 352.20 535.35 357.25 524.25 C 362.30 513.16 377.24 515.27 388.00 513.00
C 416.53 506.99 443.91 493.09 472.02 485.02 C 500.14 476.96 527.76 465.62 555.68 456.68 C 583.60 447.73 611.74 438.45 639.22 428.22 C 666.70 418.00 682.16 398.52 694.92 371.92 C 707.69 345.33 701.31 305.23 689.08 278.92 C 676.84 252.62 669.59 224.31 658.22 197.78 C 646.86 171.24 638.49 143.18 627.22 116.78 C 615.96 90.37 610.60 62.55 592.75 39.25 C 574.89 15.96 546.80 2.83 519.00 0.00
L 518.00 0.00
C 476.32 1.83 432.50 1.00 390.00 1.00
M 517.00 28.00 
C 541.66 30.39 567.89 46.67 581.75 69.25 C 595.61 91.83 602.26 120.23 612.78 145.22 C 623.29 170.22 632.17 196.75 642.31 222.69 C 652.45 248.64 662.23 273.44 671.33 300.67 C 680.43 327.91 672.19 360.49 654.25 383.25 C 636.30 406.01 610.70 412.06 584.98 420.98 C 559.25 429.89 531.03 438.82 504.98 447.98 C 478.92 457.13 450.94 465.48 424.98 474.98 C 399.01 484.47 364.68 494.89 338.32 481.68 C 311.96 468.46 296.09 455.65 285.68 427.32 C 275.27 398.99 284.27 363.53 287.00 333.00 C 289.73 302.47 293.90 267.12 297.33 236.33 C 300.76 205.54 303.97 169.60 307.33 139.33 C 310.69 109.06 313.59 82.23 333.77 58.77 C 353.95 35.31 378.04 25.77 410.00 28.00 C 441.96 30.23 484.26 24.83 517.00 28.00
M 262.00 408.00 
C 262.00 412.33 262.00 416.67 262.00 421.00
C 262.00 464.59 300.50 502.06 340.00 513.00
C 322.59 538.11 303.31 560.55 286.25 586.25 C 269.19 611.94 239.72 637.50 207.00 634.00 C 174.28 630.50 148.05 607.05 120.30 592.70 C 92.55 578.35 63.22 559.71 61.01 524.99 C 58.80 490.28 69.48 448.31 74.99 413.99 C 80.50 379.67 84.68 337.29 93.78 304.78 C 102.87 272.26 134.65 251.00 168.00 252.00 C 201.35 253.00 241.97 269.56 276.00 272.00
C 271.89 317.46 265.90 362.46 262.00 408.00 Z"/>
</g>
<g fill="#000000" fill-opacity="0.00" stroke="None">
<path d="
M 388.00 513.00 
C 378.56 519.61 374.64 533.89 366.25 542.25 C 357.86 550.60 352.74 563.63 344.70 572.70 C 336.65 581.77 330.67 592.52 323.08 602.08 C 315.49 611.64 308.77 622.52 301.23 632.23 C 293.69 641.94 287.73 651.74 278.75 660.75 C 269.76 669.75 260.66 676.97 249.30 683.30 C 237.95 689.64 224.79 694.66 210.99 695.99 C 197.20 697.32 177.63 694.82 165.32 689.68 C 153.01 684.53 143.53 678.09 132.25 671.75 C 120.98 665.40 110.29 659.18 99.25 652.75 C 88.22 646.32 77.83 640.56 66.92 634.08 C 56.01 627.60 44.94 622.40 35.25 613.75 C 25.56 605.10 18.95 596.55 12.70 585.31 C 6.44 574.06 1.58 558.63 0.00 546.00
L 0.00 746.00
L 525.00 746.00
C 460.03 740.28 412.41 674.16 423.33 610.33 C 434.25 546.50 499.75 500.28 564.00 517.00
C 610.05 469.11 701.16 503.75 708.00 568.00
L 708.00 0.00
L 519.00 0.00
C 546.80 2.83 574.89 15.96 592.75 39.25 C 610.60 62.55 615.96 90.37 627.22 116.78 C 638.49 143.18 646.86 171.24 658.22 197.78 C 669.59 224.31 676.84 252.62 689.08 278.92 C 701.31 305.23 707.69 345.33 694.92 371.92 C 682.16 398.52 666.70 418.00 639.22 428.22 C 611.74 438.45 583.60 447.73 555.68 456.68 C 527.76 465.62 500.14 476.96 472.02 485.02 C 443.91 493.09 416.53 506.99 388.00 513.00 Z"/>
</g>
<g fill="#FD5F5F" fill-opacity="1.00" stroke="None">
<path d="
M 517.00 28.00 
C 484.26 24.83 441.96 30.23 410.00 28.00 C 378.04 25.77 353.95 35.31 333.77 58.77 C 313.59 82.23 310.69 109.06 307.33 139.33 C 303.97 169.60 300.76 205.54 297.33 236.33 C 293.90 267.12 289.73 302.47 287.00 333.00 C 284.27 363.53 275.27 398.99 285.68 427.32 C 296.09 455.65 311.96 468.46 338.32 481.68 C 364.68 494.89 399.01 484.47 424.98 474.98 C 450.94 465.48 478.92 457.13 504.98 447.98 C 531.03 438.82 559.25 429.89 584.98 420.98 C 610.70 412.06 636.30 406.01 654.25 383.25 C 672.19 360.49 680.43 327.91 671.33 300.67 C 662.23 273.44 652.45 248.64 642.31 222.69 C 632.17 196.75 623.29 170.22 612.78 145.22 C 602.26 120.23 595.61 91.83 581.75 69.25 C 567.89 46.67 541.66 30.39 517.00 28.00
M 377.00 469.00 
C 374.18 469.27 370.76 469.27 368.00 469.00
C 338.55 469.00 316.80 452.85 300.70 427.30 C 284.59 401.76 292.17 365.01 295.78 334.78 C 299.39 304.55 302.38 266.92 306.00 236.00 C 309.61 205.08 312.98 168.25 316.93 137.93 C 320.88 107.60 330.14 85.01 356.08 67.08 C 382.02 49.15 421.99 56.56 453.00 55.00 C 484.01 53.44 520.37 53.41 543.75 73.25 C 567.12 93.09 572.71 116.59 582.77 143.23 C 592.84 169.87 603.01 195.51 612.78 222.22 C 622.54 248.94 634.21 275.02 642.78 302.22 C 651.34 329.43 640.22 364.28 619.25 383.25 C 598.27 402.22 569.69 407.73 543.32 416.32 C 516.96 424.91 489.17 436.85 461.93 443.93 C 434.68 451.00 405.96 469.00 377.00 469.00 Z"/>
</g>
<g fill="#010C3A" fill-opacity="1.00" stroke="None">
<path d="
M 368.00 469.00 
C 371.00 469.00 374.00 469.00 377.00 469.00
C 405.96 469.00 434.68 451.00 461.93 443.93 C 489.17 436.85 516.96 424.91 543.32 416.32 C 569.69 407.73 598.27 402.22 619.25 383.25 C 640.22 364.28 651.34 329.43 642.78 302.22 C 634.21 275.02 622.54 248.94 612.78 222.22 C 603.01 195.51 592.84 169.87 582.77 143.23 C 572.71 116.59 567.12 93.09 543.75 73.25 C 520.37 53.41 484.01 53.44 453.00 55.00 C 421.99 56.56 382.02 49.15 356.08 67.08 C 330.14 85.01 320.88 107.60 316.93 137.93 C 312.98 168.25 309.61 205.08 306.00 236.00 C 302.38 266.92 299.39 304.55 295.78 334.78 C 292.17 365.01 284.59 401.76 300.70 427.30 C 316.80 452.85 338.55 469.00 368.00 469.00 Z"/>
</g>
<g fill="#EEEDED" fill-opacity="0.98" stroke="None">
<path d="
M 0.00 525.00 
L 0.00 527.00
C 1.62 531.93 1.69 540.15 0.00 545.00
L 0.00 546.00
C 1.58 558.63 6.44 574.06 12.70 585.31 C 18.95 596.55 25.56 605.10 35.25 613.75 C 44.94 622.40 56.01 627.60 66.92 634.08 C 77.83 640.56 88.22 646.32 99.25 652.75 C 110.29 659.18 120.98 665.40 132.25 671.75 C 143.53 678.09 153.01 684.53 165.32 689.68 C 177.63 694.82 197.20 697.32 210.99 695.99 C 224.79 694.66 237.95 689.64 249.30 683.30 C 260.66 676.97 269.76 669.75 278.75 660.75 C 287.73 651.74 293.69 641.94 301.23 632.23 C 308.77 622.52 315.49 611.64 323.08 602.08 C 330.67 592.52 336.65 581.77 344.70 572.70 C 352.74 563.63 357.86 550.60 366.25 542.25 C 374.64 533.89 378.56 519.61 388.00 513.00
C 377.24 515.27 362.30 513.16 357.25 524.25 C 352.20 535.35 345.41 538.58 339.92 547.92 C 334.43 557.25 328.42 563.16 322.75 571.75 C 317.09 580.34 311.06 587.03 305.30 595.30 C 299.54 603.57 293.61 611.64 287.75 619.75 C 281.90 627.87 275.67 634.06 268.25 641.25 C 260.83 648.43 253.52 653.60 244.22 658.22 C 234.92 662.85 222.84 666.78 212.00 667.00
C 208.15 667.47 203.76 667.36 200.00 667.00
C 173.40 667.00 148.01 647.85 126.23 634.77 C 104.44 621.70 79.44 611.61 60.00 595.00
C 56.09 591.66 52.16 588.00 49.00 584.00
C 14.34 546.09 32.91 494.38 39.00 450.00 C 45.10 405.63 55.83 351.14 61.67 307.67 C 67.51 264.20 92.51 225.52 138.98 219.98 C 185.44 214.44 234.38 238.26 280.00 242.00
C 279.90 233.05 281.47 224.80 282.00 216.00
C 238.89 210.80 189.78 192.72 147.00 190.00 C 104.22 187.28 63.46 211.42 47.77 251.77 C 32.08 292.12 31.63 343.72 22.33 387.33 C 13.03 430.94 9.40 481.34 0.00 525.00 Z"/>
</g>
<g fill="#EDEDED" fill-opacity="1.00" stroke="None">
<path d="
M 262.00 421.00 
C 261.60 416.91 261.61 412.02 262.00 408.00
C 265.90 362.46 271.89 317.46 276.00 272.00
C 241.97 269.56 201.35 253.00 168.00 252.00 C 134.65 251.00 102.87 272.26 93.78 304.78 C 84.68 337.29 80.50 379.67 74.99 413.99 C 69.48 448.31 58.80 490.28 61.01 524.99 C 63.22 559.71 92.55 578.35 120.30 592.70 C 148.05 607.05 174.28 630.50 207.00 634.00 C 239.72 637.50 269.19 611.94 286.25 586.25 C 303.31 560.55 322.59 538.11 340.00 513.00
C 300.50 502.06 262.00 464.59 262.00 421.00 Z"/>
</g>
<g fill="#E88887" fill-opacity="1.00" stroke="None">
<path d="
M 262.00 421.00 
C 262.00 416.67 262.00 412.33 262.00 408.00
C 261.61 412.02 261.60 416.91 262.00 421.00 Z"/>
</g>
<g fill="#8F3B4F" fill-opacity="1.00" stroke="None">
<path d="
M 377.00 469.00 
C 374.00 469.00 371.00 469.00 368.00 469.00
C 370.76 469.27 374.18 469.27 377.00 469.00 Z"/>
</g>
<g fill="#EDEDED" fill-opacity="0.95" stroke="None">
<path d="
M 564.00 517.00 
C 556.24 525.07 549.44 533.55 544.00 543.00
C 513.60 595.85 558.10 666.82 617.00 668.00
C 627.89 668.22 638.77 666.57 649.00 664.00
C 680.11 656.18 702.55 624.53 708.00 595.00
L 708.00 568.00
C 701.16 503.75 610.05 469.11 564.00 517.00
M 654.00 638.00 
C 645.33 643.94 634.97 646.80 624.00 647.00
C 600.07 647.43 579.91 636.02 566.25 615.75 C 552.58 595.49 555.59 566.47 567.00 546.00
C 572.00 537.03 580.09 529.81 589.00 525.00
C 620.34 508.09 659.13 517.11 677.92 549.08 C 696.71 581.04 683.46 617.79 654.00 638.00 Z"/>
</g>
<g fill="#010C3A" fill-opacity="0.96" stroke="None">
<path d="
M 525.00 746.00 
L 531.00 746.00
C 534.60 744.41 541.47 744.29 545.00 746.00
L 551.00 746.00
C 558.27 744.23 567.90 742.93 575.07 740.07 C 582.25 737.22 589.62 735.08 596.08 731.08 C 602.53 727.07 607.73 723.13 613.70 718.70 C 619.67 714.26 623.12 708.31 628.25 703.25 C 633.38 698.19 635.67 690.68 640.31 685.31 C 644.94 679.93 644.58 668.78 649.00 664.00
C 638.77 666.57 627.89 668.22 617.00 668.00
C 611.98 670.48 611.44 681.36 606.08 685.08 C 600.73 688.80 597.24 695.78 591.30 699.30 C 585.37 702.83 580.25 707.88 573.31 710.31 C 566.36 712.73 559.50 715.69 551.78 716.78 C 544.06 717.87 532.72 718.28 525.00 717.00 C 517.28 715.72 509.63 712.98 502.78 710.22 C 495.92 707.47 490.83 704.12 485.25 699.75 C 479.66 695.38 474.98 691.30 470.25 685.75 C 465.52 680.21 462.64 674.51 459.08 667.92 C 455.51 661.34 453.71 653.59 452.01 645.99 C 450.31 638.39 450.04 628.84 451.00 621.00 C 451.96 613.15 453.83 604.73 456.78 597.78 C 459.73 590.83 462.37 584.58 466.92 578.92 C 471.47 573.25 474.74 569.01 480.25 564.25 C 485.76 559.49 490.68 555.66 497.23 552.23 C 503.78 548.80 511.18 546.19 518.67 544.67 C 526.16 543.16 536.26 540.78 544.00 543.00
C 549.44 533.55 556.24 525.07 564.00 517.00
C 499.75 500.28 434.25 546.50 423.33 610.33 C 412.41 674.16 460.03 740.28 525.00 746.00 Z"/>
</g>
<g fill="#000000" fill-opacity="0.00" stroke="None">
<path d="
M 589.00 525.00 
C 595.02 525.12 600.90 533.68 606.75 536.25 C 612.59 538.83 617.66 545.59 622.75 550.25 C 627.85 554.91 631.93 561.35 635.77 567.23 C 639.61 573.11 643.36 579.26 645.78 586.22 C 648.19 593.19 652.02 601.92 652.33 609.67 C 652.64 617.42 657.09 630.04 654.00 638.00
C 683.46 617.79 696.71 581.04 677.92 549.08 C 659.13 517.11 620.34 508.09 589.00 525.00 Z"/>
</g>
<g fill="#010C3A" fill-opacity="0.96" stroke="None">
<path d="
M 567.00 546.00 
C 567.79 550.53 580.66 551.83 584.23 555.77 C 587.80 559.71 595.61 562.43 599.25 567.75 C 602.89 573.08 608.52 576.32 611.75 582.25 C 614.99 588.18 618.13 593.54 620.77 600.23 C 623.41 606.92 623.98 615.49 625.00 623.00 C 626.02 630.51 625.72 639.37 624.00 647.00
C 634.97 646.80 645.33 643.94 654.00 638.00
C 657.09 630.04 652.64 617.42 652.33 609.67 C 652.02 601.92 648.19 593.19 645.78 586.22 C 643.36 579.26 639.61 573.11 635.77 567.23 C 631.93 561.35 627.85 554.91 622.75 550.25 C 617.66 545.59 612.59 538.83 606.75 536.25 C 600.90 533.68 595.02 525.12 589.00 525.00
C 580.09 529.81 572.00 537.03 567.00 546.00 Z"/>
</g>
<g fill="#EDEDED" fill-opacity="0.41" stroke="None">
<path d="
M 0.00 545.00 
C 1.69 540.15 1.62 531.93 0.00 527.00
L 0.00 545.00 Z"/>
</g>
<g fill="#000000" fill-opacity="0.00" stroke="None">
<path d="
M 617.00 668.00 
C 558.10 666.82 513.60 595.85 544.00 543.00
C 536.26 540.78 526.16 543.16 518.67 544.67 C 511.18 546.19 503.78 548.80 497.23 552.23 C 490.68 555.66 485.76 559.49 480.25 564.25 C 474.74 569.01 471.47 573.25 466.92 578.92 C 462.37 584.58 459.73 590.83 456.78 597.78 C 453.83 604.73 451.96 613.15 451.00 621.00 C 450.04 628.84 450.31 638.39 452.01 645.99 C 453.71 653.59 455.51 661.34 459.08 667.92 C 462.64 674.51 465.52 680.21 470.25 685.75 C 474.98 691.30 479.66 695.38 485.25 699.75 C 490.83 704.12 495.92 707.47 502.78 710.22 C 509.63 712.98 517.28 715.72 525.00 717.00 C 532.72 718.28 544.06 717.87 551.78 716.78 C 559.50 715.69 566.36 712.73 573.31 710.31 C 580.25 707.88 585.37 702.83 591.30 699.30 C 597.24 695.78 600.73 688.80 606.08 685.08 C 611.44 681.36 611.98 670.48 617.00 668.00 Z"/>
</g>
<g fill="#000000" fill-opacity="0.00" stroke="None">
<path d="
M 624.00 647.00 
C 625.72 639.37 626.02 630.51 625.00 623.00 C 623.98 615.49 623.41 606.92 620.77 600.23 C 618.13 593.54 614.99 588.18 611.75 582.25 C 608.52 576.32 602.89 573.08 599.25 567.75 C 595.61 562.43 587.80 559.71 584.23 555.77 C 580.66 551.83 567.79 550.53 567.00 546.00
C 555.59 566.47 552.58 595.49 566.25 615.75 C 579.91 636.02 600.07 647.43 624.00 647.00 Z"/>
</g>
<g fill="#E88584" fill-opacity="1.00" stroke="None">
<path d="
M 60.00 595.00 
C 56.52 591.52 52.37 587.65 49.00 584.00
C 52.16 588.00 56.09 591.66 60.00 595.00 Z"/>
</g>
<g fill="#000000" fill-opacity="0.00" stroke="None">
<path d="
M 649.00 664.00 
C 644.58 668.78 644.94 679.93 640.31 685.31 C 635.67 690.68 633.38 698.19 628.25 703.25 C 623.12 708.31 619.67 714.26 613.70 718.70 C 607.73 723.13 602.53 727.07 596.08 731.08 C 589.62 735.08 582.25 737.22 575.07 740.07 C 567.90 742.93 558.27 744.23 551.00 746.00
L 708.00 746.00
L 708.00 595.00
C 702.55 624.53 680.11 656.18 649.00 664.00 Z"/>
</g>
<g fill="#E9A2A2" fill-opacity="1.00" stroke="None">
<path d="
M 212.00 667.00 
C 208.00 667.08 204.00 667.00 200.00 667.00
C 203.76 667.36 208.15 667.47 212.00 667.00 Z"/>
</g>
<g fill="#010C3A" fill-opacity="0.67" stroke="None">
<path d="
M 531.00 746.00 
L 545.00 746.00
C 541.47 744.29 534.60 744.41 531.00 746.00 Z"/>
</g>
</svg>