<svg version="1.1" id="Layer_1" xmlns="http://www.w3.org/2000/svg" xmlns:xlink="http://www.w3.org/1999/xlink" x="0px" y="0px"
	 width="100%" viewBox="0 0 708 746" enable-background="new 0 0 708 746" xml:space="preserve">
<path fill="#DF0404" opacity="1.000000" stroke="none" 
	d="
M261.000000,1.000000 
	C410.268768,1.000000 559.537537,1.000000 709.000000,1.000000 
	C709.000000,179.358185 709.000000,357.716461 708.536499,536.537964 
	C705.261719,537.001343 702.423584,537.231323 699.649841,536.908386 
	C698.168579,536.736023 696.211365,535.992004 695.469116,534.853699 
	C688.287537,523.840576 678.624207,515.434570 668.439148,508.009705 
	C675.488831,508.001984 682.068115,508.001984 688.664795,508.001984 
	C688.664795,467.723602 688.664795,428.277954 688.664795,387.338654 
	C680.201782,401.212830 669.934814,411.504791 657.541809,420.157471 
	C650.989868,423.523590 645.039429,427.589355 638.468445,429.857147 
	C603.751221,441.839111 568.854309,453.299561 534.066711,465.079407 
	C512.012329,472.547546 490.039825,480.257629 467.638641,487.913208 
	C447.810822,494.351166 428.374969,500.735077 408.939117,507.119019 
	C409.023102,507.418488 409.107086,507.717926 409.191071,508.017395 
	C465.137817,508.017395 521.084595,508.017395 576.926147,508.351257 
	C572.815796,511.797424 568.810486,514.909729 564.463745,517.834290 
	C550.849976,514.519958 537.505859,514.274780 523.974792,515.894592 
	C512.664368,517.248596 501.938171,520.302551 491.552429,524.808228 
	C474.338654,532.276123 460.138916,543.682739 448.091980,557.536987 
	C448.018066,550.472351 448.018066,543.871155 448.018066,536.875061 
	C422.694794,536.875061 397.972351,536.875061 372.292969,536.875061 
	C378.191895,528.792419 383.570251,521.423035 389.242767,513.650696 
	C382.156891,514.456787 375.632263,515.515564 369.073273,515.810547 
	C365.835266,515.956238 363.992737,517.078552 362.179260,519.576355 
	C337.917725,552.993103 313.696716,586.441101 289.141113,619.641296 
	C283.327057,627.502075 276.866791,635.063049 269.757385,641.756836 
	C239.087692,670.633667 199.594711,676.601562 164.972168,657.270569 
	C133.893311,639.918213 102.746010,622.592468 72.561501,603.760254 
	C39.919518,583.394714 25.879463,552.892212 29.835793,514.490540 
	C30.738304,505.730408 32.501823,497.057953 33.899967,488.350098 
	C44.267536,423.779541 54.503403,359.187408 65.062424,294.648163 
	C72.749657,247.661926 119.247696,213.421051 166.223404,220.932693 
	C194.616699,225.472916 222.697327,231.967712 250.919800,237.577423 
	C260.664948,239.514465 270.414154,241.430878 280.732849,243.469589 
	C281.492920,234.262863 282.202057,225.673218 282.940552,216.640381 
	C283.339966,211.941330 283.653076,207.679657 284.090057,203.430695 
	C285.751556,187.274216 287.453094,171.121841 289.478333,154.725616 
	C290.543274,147.451981 291.299652,140.423599 291.988708,133.388657 
	C293.030365,122.753693 293.616364,112.055420 295.133942,101.490059 
	C297.512817,84.928398 301.938019,68.901970 310.022797,53.697960 
	C316.340057,44.576511 322.498016,35.769814 328.325623,27.435532 
	C312.765198,27.435532 296.548553,27.435532 279.983734,27.435532 
	C279.983734,90.588600 279.983734,153.309784 279.555176,216.017670 
	C272.837128,214.906235 266.547638,213.808105 260.833405,212.810425 
	C260.833405,202.513031 260.833405,192.749680 260.907501,182.523682 
	C260.987732,121.707367 260.993866,61.353683 261.000000,1.000000 
M657.965942,194.739471 
	C667.943970,221.200165 677.921997,247.660843 687.899963,274.121521 
	C688.113098,273.995300 688.326172,273.869110 688.539246,273.742889 
	C688.539246,191.593109 688.539246,109.443321 688.539246,27.447426 
	C652.971008,27.447426 617.862122,27.447426 583.538452,27.447426 
	C590.032166,36.249725 596.584351,45.131233 603.264221,54.706207 
	C607.736877,65.561592 612.418579,76.336418 616.640930,87.288322 
	C626.910400,113.925659 636.921753,140.662399 647.133728,167.322098 
	C650.558350,176.262375 654.275330,185.090652 657.965942,194.739471 
M304.059265,564.560852 
	C316.412964,547.629456 328.766663,530.697998 341.107727,513.783875 
	C340.666107,513.367737 340.484772,513.071777 340.229462,512.978577 
	C339.292725,512.636536 338.337372,512.341003 337.378387,512.065002 
	C316.438019,506.038055 298.863220,494.742310 285.293976,477.711212 
	C267.573273,455.469543 260.099609,430.310089 263.561981,401.714233 
	C267.804871,366.672089 271.187531,331.525635 274.921387,296.422089 
	C275.725311,288.864105 276.440918,281.296753 277.172302,273.982910 
	C276.321228,273.517120 276.055420,273.280396 275.754150,273.219727 
	C245.587280,267.142944 215.303741,261.590332 185.276291,254.889923 
	C144.738892,245.844284 102.024864,270.502655 92.464859,313.352844 
	C88.738853,330.053619 86.739403,347.141571 84.008041,364.061951 
	C76.794693,408.747498 69.870308,453.481628 62.330200,498.111816 
	C56.741512,531.191467 69.473465,562.939087 97.175278,579.703674 
	C123.783836,595.806702 150.867554,611.138611 177.968613,626.408020 
	C192.007599,634.317993 207.328354,636.917603 223.343094,634.357605 
	C243.673874,631.107727 260.199310,620.760071 273.208466,605.350220 
	C284.036774,592.523743 293.557617,578.593384 304.059265,564.560852 
M560.500549,46.949360 
	C540.986877,32.482918 518.689758,27.959557 494.911957,28.141466 
	C466.082001,28.362026 437.248871,28.139799 408.417572,28.238043 
	C402.434998,28.258429 396.385284,28.375134 390.484131,29.245279 
	C354.229584,34.591125 330.841187,55.672504 318.036926,89.326889 
	C313.360443,101.618515 310.922241,114.403160 309.895264,127.537506 
	C308.903625,140.220078 307.303284,152.855270 305.954956,165.509644 
	C305.218628,172.420334 304.454834,179.328140 303.695435,186.236359 
	C302.466736,197.414291 301.211304,208.589310 300.004822,219.769623 
	C298.868958,230.296036 297.807098,240.830475 296.666199,251.356323 
	C295.472839,262.365906 294.183105,273.365082 293.011566,284.376892 
	C291.891510,294.905090 290.909943,305.447968 289.793121,315.976532 
	C288.573059,327.478180 287.279663,338.972137 285.995819,350.466949 
	C284.766815,361.471130 283.052704,372.445129 282.399963,383.482544 
	C281.817352,393.333527 281.229645,403.429291 282.695251,413.106415 
	C285.961029,434.669769 296.429810,452.638031 313.200073,466.791138 
	C335.775696,485.843536 361.741302,493.490875 390.553192,487.025970 
	C407.745453,483.168304 424.335938,476.559631 441.115509,470.944214 
	C498.686523,451.677551 556.205444,432.255280 613.782227,413.005829 
	C627.345764,408.471161 639.412170,401.338715 649.050476,391.011017 
	C675.922607,362.216919 682.984070,328.724152 669.189331,291.838135 
	C644.118408,224.800858 618.270264,158.054626 592.887146,91.133575 
	C586.232483,73.588905 576.173462,58.707615 560.500549,46.949360 
z"/>
<path fill="#EEEEEE" opacity="1.000000" stroke="none" 
	d="
M260.833405,182.986328 
	C260.833405,192.749680 260.833405,202.513031 260.833405,212.810425 
	C266.547638,213.808105 272.837128,214.906235 279.704468,216.320190 
	C281.158630,216.785187 282.034912,216.934387 282.911194,217.083588 
	C282.202057,225.673218 281.492920,234.262863 280.732849,243.469589 
	C270.414154,241.430878 260.664948,239.514465 250.919800,237.577423 
	C222.697327,231.967712 194.616699,225.472916 166.223404,220.932693 
	C119.247696,213.421051 72.749657,247.661926 65.062424,294.648163 
	C54.503403,359.187408 44.267536,423.779541 33.899967,488.350098 
	C32.501823,497.057953 30.738304,505.730408 29.835793,514.490540 
	C25.879463,552.892212 39.919518,583.394714 72.561501,603.760254 
	C102.746010,622.592468 133.893311,639.918213 164.972168,657.270569 
	C199.594711,676.601562 239.087692,670.633667 269.757385,641.756836 
	C276.866791,635.063049 283.327057,627.502075 289.141113,619.641296 
	C313.696716,586.441101 337.917725,552.993103 362.179260,519.576355 
	C363.992737,517.078552 365.835266,515.956238 369.073273,515.810547 
	C375.632263,515.515564 382.156891,514.456787 389.242767,513.650696 
	C383.570251,521.423035 378.191895,528.792419 372.292969,536.875061 
	C397.972351,536.875061 422.694794,536.875061 448.018066,536.875061 
	C448.018066,543.871155 448.018066,550.472351 447.947632,557.857788 
	C446.915588,559.933228 445.942596,561.216064 444.994110,562.516724 
	C431.535461,580.973145 424.064697,601.613159 423.097351,624.422668 
	C422.765076,632.257568 423.555756,640.139954 423.375854,648.000732 
	C380.473938,648.000793 338.029388,648.042664 295.585327,647.924805 
	C292.017303,647.914856 289.989746,649.229309 287.897888,651.986938 
	C284.430237,656.558228 280.728424,661.096436 276.438293,664.866943 
	C269.200195,671.228271 261.425079,676.978516 253.858643,682.999329 
	C314.076874,682.999329 374.455139,682.999329 434.985168,683.330078 
	C441.675507,693.510315 448.214081,703.359863 454.635742,713.033386 
	C444.282318,713.033386 433.194824,713.033386 421.631958,713.023682 
	C281.104401,713.009338 141.052200,713.004639 1.000000,713.000000 
	C1.000000,536.645752 1.000000,360.291534 1.468657,183.468842 
	C88.236008,182.995682 174.534714,182.991013 260.833405,182.986328 
M46.380787,622.055054 
	C38.484371,615.427002 30.587952,608.799011 23.363438,602.734924 
	C23.363438,628.738464 23.363438,655.801331 23.363438,682.779724 
	C65.596153,682.779724 107.466003,682.779724 149.913788,682.779724 
	C148.304321,681.628174 147.232727,680.714966 146.032715,680.025146 
	C130.319824,670.992554 114.433739,662.247192 98.939995,652.854370 
	C92.896088,649.190247 86.938477,647.535339 79.947807,647.900085 
	C71.714867,648.329590 63.442368,648.000732 54.998344,648.000732 
	C54.998344,640.701050 54.998344,634.059448 54.998344,627.857422 
	C52.097553,625.916748 49.540733,624.206177 46.380787,622.055054 
M35.991894,311.348541 
	C36.002705,310.349426 35.878288,309.327087 36.045307,308.354797 
	C37.667034,298.914185 39.548683,289.513092 40.946114,280.040253 
	C43.198418,264.772369 47.697800,250.270569 56.845074,237.785843 
	C63.531212,228.660187 71.385109,220.390121 78.251724,212.289307 
	C60.690292,212.289307 41.988590,212.289307 23.301437,212.289307 
	C23.301437,270.791016 23.301437,329.003784 23.301437,387.216553 
	C24.618727,381.298157 25.347017,375.337250 26.290644,369.410675 
	C28.129839,357.859406 30.065449,346.323212 32.008018,334.788666 
	C33.274960,327.265869 34.624531,319.756989 35.991894,311.348541 
z"/>
<path fill="#FFFFFF" opacity="1.000000" stroke="none" 
	d="
M260.907501,182.523682 
	C174.534714,182.991013 88.236008,182.995682 1.468657,183.000183 
	C1.000000,122.393425 1.000000,61.786850 1.000000,1.000000 
	C87.354141,1.000000 173.708420,1.000000 260.531342,1.000000 
	C260.993866,61.353683 260.987732,121.707367 260.907501,182.523682 
z"/>
<path fill="#010C3A" opacity="1.000000" stroke="none" 
	d="
M423.833405,648.000671 
	C423.555756,640.139954 422.765076,632.257568 423.097351,624.422668 
	C424.064697,601.613159 431.535461,580.973145 444.994110,562.516724 
	C445.942596,561.216064 446.915588,559.933228 448.021545,558.321289 
	C460.138916,543.682739 474.338654,532.276123 491.552429,524.808228 
	C501.938171,520.302551 512.664368,517.248596 523.974792,515.894592 
	C537.505859,514.274780 550.849976,514.519958 564.447937,518.165955 
	C560.511597,523.566589 555.654724,528.058960 552.143005,533.430664 
	C548.027283,539.726013 544.821167,546.354919 535.349548,542.507507 
	C535.349548,585.502136 535.349548,627.685242 535.349548,670.000061 
	C545.353577,670.000061 555.012817,670.185303 564.662659,669.963074 
	C587.547241,669.436035 610.434082,668.879211 633.304626,667.954834 
	C638.798889,667.732727 644.233215,666.030945 649.847351,664.981140 
	C649.545776,666.729309 649.293091,668.194092 648.975830,670.033325 
	C651.600769,670.033325 653.746887,670.033325 655.942139,670.497620 
	C655.994202,696.307922 655.997070,721.653992 656.000000,747.000000 
	C578.312439,747.000000 500.624878,747.000000 422.468628,746.531372 
	C422.035736,735.052917 422.071533,724.043152 422.107330,713.033386 
	C433.194824,713.033386 444.282318,713.033386 454.635742,713.033386 
	C448.214081,703.359863 441.675507,693.510315 434.935669,682.981079 
	C429.037781,671.523438 425.879181,659.938904 423.833405,648.000671 
M482.241547,564.274475 
	C481.065338,565.446167 479.890778,566.619568 478.712738,567.789368 
	C459.028015,587.337524 449.457092,610.636414 451.945312,638.633789 
	C453.414459,655.164856 458.832581,670.038574 469.254913,683.787048 
	C480.752075,697.830444 494.016602,709.232056 512.600220,713.741699 
	C512.600220,657.871582 512.600220,602.990723 512.600220,547.834473 
	C500.996307,550.791992 491.652344,556.910645 482.241547,564.274475 
z"/>
<path fill="#EEEEEE" opacity="1.000000" stroke="none" 
	d="
M655.893005,670.033325 
	C653.746887,670.033325 651.600769,670.033325 648.975830,670.033325 
	C649.293091,668.194092 649.545776,666.729309 649.847351,664.981140 
	C644.233215,666.030945 638.798889,667.732727 633.304626,667.954834 
	C610.434082,668.879211 587.547241,669.436035 564.662659,669.963074 
	C555.012817,670.185303 545.353577,670.000061 535.349548,670.000061 
	C535.349548,627.685242 535.349548,585.502136 535.349548,542.507507 
	C544.821167,546.354919 548.027283,539.726013 552.143005,533.430664 
	C555.654724,528.058960 560.511597,523.566589 564.789307,518.353638 
	C568.810486,514.909729 572.815796,511.797424 577.292358,508.329285 
	C579.835205,506.983582 581.928101,506.036133 583.974731,504.997406 
	C602.640198,495.524475 622.326355,493.352753 642.466675,498.234528 
	C651.242188,500.361572 659.484314,504.689178 667.968689,508.017426 
	C678.624207,515.434570 688.287537,523.840576 695.469116,534.853699 
	C696.211365,535.992004 698.168579,536.736023 699.649841,536.908386 
	C702.423584,537.231323 705.261719,537.001343 708.536499,537.000610 
	C709.000000,581.020874 709.000000,625.041809 708.531372,669.531311 
	C690.672791,670.011047 673.282898,670.022156 655.893005,670.033325 
M608.928894,537.018555 
	C628.780457,537.018555 648.632080,537.018555 669.859009,537.018555 
	C665.570496,533.678711 662.511597,531.071533 659.230835,528.782471 
	C648.137817,521.042603 635.576111,517.075867 622.250610,517.212219 
	C610.915466,517.328125 599.910889,520.371826 589.181274,526.320129 
	C580.028320,531.619629 572.591797,538.586243 567.219482,548.112427 
	C588.262695,555.618469 603.968689,568.755676 614.773254,587.397217 
	C625.607422,606.089844 629.270447,626.280701 624.955566,648.048035 
	C635.206665,647.827454 644.386658,645.341858 652.986755,640.763367 
	C653.989319,640.229675 654.859924,638.505859 654.920959,637.290039 
	C655.624023,623.295227 654.235962,609.528564 649.979980,596.114685 
	C642.314880,571.956238 628.217346,552.383911 608.928894,537.018555 
z"/>
<path fill="#FFFFFF" opacity="1.000000" stroke="none" 
	d="
M421.631958,713.023682 
	C422.071533,724.043152 422.035736,735.052917 421.999939,746.531372 
	C281.666656,747.000000 141.333313,747.000000 1.000000,747.000000 
	C1.000000,735.916138 1.000000,724.926697 1.000000,713.468628 
	C141.052200,713.004639 281.104401,713.009338 421.631958,713.023682 
z"/>
<path fill="#FFFFFF" opacity="1.000000" stroke="none" 
	d="
M655.942139,670.497559 
	C673.282898,670.022156 690.672791,670.011047 708.531372,670.000000 
	C709.000000,695.580017 709.000000,721.159973 709.000000,747.000000 
	C691.646667,747.000000 674.291992,747.000000 656.468628,747.000000 
	C655.997070,721.653992 655.994202,696.307922 655.942139,670.497559 
z"/>
<path fill="#EEEEEE" opacity="1.000000" stroke="none" 
	d="
M303.858398,564.856445 
	C293.557617,578.593384 284.036774,592.523743 273.208466,605.350220 
	C260.199310,620.760071 243.673874,631.107727 223.343094,634.357605 
	C207.328354,636.917603 192.007599,634.317993 177.968613,626.408020 
	C150.867554,611.138611 123.783836,595.806702 97.175278,579.703674 
	C69.473465,562.939087 56.741512,531.191467 62.330200,498.111816 
	C69.870308,453.481628 76.794693,408.747498 84.008041,364.061951 
	C86.739403,347.141571 88.738853,330.053619 92.464859,313.352844 
	C102.024864,270.502655 144.738892,245.844284 185.276291,254.889923 
	C215.303741,261.590332 245.587280,267.142944 275.754150,273.219727 
	C276.055420,273.280396 276.321228,273.517120 277.172302,273.982910 
	C276.440918,281.296753 275.725311,288.864105 274.921387,296.422089 
	C271.187531,331.525635 267.804871,366.672089 263.561981,401.714233 
	C260.099609,430.310089 267.573273,455.469543 285.293976,477.711212 
	C298.863220,494.742310 316.438019,506.038055 337.378387,512.065002 
	C338.337372,512.341003 339.292725,512.636536 340.229462,512.978577 
	C340.484772,513.071777 340.666107,513.367737 341.107727,513.783875 
	C328.766663,530.697998 316.412964,547.629456 303.858398,564.856445 
z"/>
<path fill="#FD5F5F" opacity="1.000000" stroke="none" 
	d="
M560.749146,47.211800 
	C576.173462,58.707615 586.232483,73.588905 592.887146,91.133575 
	C618.270264,158.054626 644.118408,224.800858 669.189331,291.838135 
	C682.984070,328.724152 675.922607,362.216919 649.050476,391.011017 
	C639.412170,401.338715 627.345764,408.471161 613.782227,413.005829 
	C556.205444,432.255280 498.686523,451.677551 441.115509,470.944214 
	C424.335938,476.559631 407.745453,483.168304 390.553192,487.025970 
	C361.741302,493.490875 335.775696,485.843536 313.200073,466.791138 
	C296.429810,452.638031 285.961029,434.669769 282.695251,413.106415 
	C281.229645,403.429291 281.817352,393.333527 282.399963,383.482544 
	C283.052704,372.445129 284.766815,361.471130 285.995819,350.466949 
	C287.279663,338.972137 288.573059,327.478180 289.793121,315.976532 
	C290.909943,305.447968 291.891510,294.905090 293.011566,284.376892 
	C294.183105,273.365082 295.472839,262.365906 296.666199,251.356323 
	C297.807098,240.830475 298.868958,230.296036 300.004822,219.769623 
	C301.211304,208.589310 302.466736,197.414291 303.695435,186.236359 
	C304.454834,179.328140 305.218628,172.420334 305.954956,165.509644 
	C307.303284,152.855270 308.903625,140.220078 309.895264,127.537506 
	C310.922241,114.403160 313.360443,101.618515 318.036926,89.326889 
	C330.841187,55.672504 354.229584,34.591125 390.484131,29.245279 
	C396.385284,28.375134 402.434998,28.258429 408.417572,28.238043 
	C437.248871,28.139799 466.082001,28.362026 494.911957,28.141466 
	C518.689758,27.959557 540.986877,32.482918 560.749146,47.211800 
M301.127136,291.729401 
	C298.909393,312.702728 296.671234,333.673889 294.482056,354.650208 
	C293.278351,366.184082 291.202942,377.723053 291.160919,389.265717 
	C290.960052,444.424774 347.174408,483.894684 400.147491,466.068451 
	C463.185059,444.855377 526.179932,423.515686 589.196777,402.240997 
	C634.092896,387.083923 657.380005,339.037598 640.704834,294.677368 
	C617.358765,232.570740 593.660339,170.595108 569.816223,108.677597 
	C557.487976,76.664146 527.477661,56.212029 493.122620,55.997566 
	C461.299622,55.798912 429.470245,55.675636 397.651276,56.094967 
	C373.681274,56.410854 353.822235,66.052597 338.585968,84.777634 
	C323.549652,103.257004 318.699951,125.416946 316.105621,148.244736 
	C313.612213,170.184250 311.758453,192.195770 309.471924,214.159851 
	C308.532990,223.179031 307.026428,232.138931 306.078308,241.157364 
	C304.339111,257.700073 302.822662,274.266235 301.127136,291.729401 
z"/>
<path fill="#FF6060" opacity="1.000000" stroke="none" 
	d="
M603.136536,54.012730 
	C596.584351,45.131233 590.032166,36.249725 583.538452,27.447426 
	C617.862122,27.447426 652.971008,27.447426 688.539246,27.447426 
	C688.539246,109.443321 688.539246,191.593109 688.539246,273.742889 
	C688.326172,273.869110 688.113098,273.995300 687.899963,274.121521 
	C677.921997,247.660843 667.943970,221.200165 657.972290,193.888702 
	C657.978699,146.821854 657.978699,100.605782 657.978699,54.012722 
	C639.350159,54.012722 621.243347,54.012722 603.136536,54.012730 
z"/>
<path fill="#FF6060" opacity="1.000000" stroke="none" 
	d="
M668.439148,508.009705 
	C659.484314,504.689178 651.242188,500.361572 642.466675,498.234528 
	C622.326355,493.352753 602.640198,495.524475 583.974731,504.997406 
	C581.928101,506.036133 579.835205,506.983582 577.397522,507.995392 
	C521.084595,508.017395 465.137817,508.017395 409.191071,508.017395 
	C409.107086,507.717926 409.023102,507.418488 408.939117,507.119019 
	C428.374969,500.735077 447.810822,494.351166 468.104736,487.972992 
	C531.864502,487.978760 594.766235,487.978760 657.856934,487.978760 
	C657.856934,464.940826 657.856934,442.484192 657.856934,420.027557 
	C669.934814,411.504791 680.201782,401.212830 688.664795,387.338654 
	C688.664795,428.277954 688.664795,467.723602 688.664795,508.001984 
	C682.068115,508.001984 675.488831,508.001984 668.439148,508.009705 
z"/>
<path fill="#010C3A" opacity="1.000000" stroke="none" 
	d="
M657.541809,420.157471 
	C657.856934,442.484192 657.856934,464.940826 657.856934,487.978760 
	C594.766235,487.978760 531.864502,487.978760 468.496643,487.919006 
	C490.039825,480.257629 512.012329,472.547546 534.066711,465.079407 
	C568.854309,453.299561 603.751221,441.839111 638.468445,429.857147 
	C645.039429,427.589355 650.989868,423.523590 657.541809,420.157471 
z"/>
<path fill="#010C3A" opacity="1.000000" stroke="none" 
	d="
M603.200378,54.359467 
	C621.243347,54.012722 639.350159,54.012722 657.978699,54.012722 
	C657.978699,100.605782 657.978699,146.821854 657.918701,193.504028 
	C654.275330,185.090652 650.558350,176.262375 647.133728,167.322098 
	C636.921753,140.662399 626.910400,113.925659 616.640930,87.288322 
	C612.418579,76.336418 607.736877,65.561592 603.200378,54.359467 
z"/>
<path fill="#FF6060" opacity="1.000000" stroke="none" 
	d="
M282.940552,216.640381 
	C282.034912,216.934387 281.158630,216.785187 280.133057,216.333496 
	C279.983734,153.309784 279.983734,90.588600 279.983734,27.435532 
	C296.548553,27.435532 312.765198,27.435532 328.325623,27.435532 
	C322.498016,35.769814 316.340057,44.576511 309.566467,53.692886 
	C302.370819,54.002567 295.790863,54.002567 289.139648,54.002567 
	C289.139648,88.126999 289.139648,121.547470 289.139648,154.967941 
	C287.453094,171.121841 285.751556,187.274216 284.090057,203.430695 
	C283.653076,207.679657 283.339966,211.941330 282.940552,216.640381 
z"/>
<path fill="#010C3A" opacity="1.000000" stroke="none" 
	d="
M289.478333,154.725616 
	C289.139648,121.547470 289.139648,88.126999 289.139648,54.002567 
	C295.790863,54.002567 302.370819,54.002567 309.407104,54.007641 
	C301.938019,68.901970 297.512817,84.928398 295.133942,101.490059 
	C293.616364,112.055420 293.030365,122.753693 291.988708,133.388657 
	C291.299652,140.423599 290.543274,147.451981 289.478333,154.725616 
z"/>
<path fill="#DF0303" opacity="1.000000" stroke="none" 
	d="
M423.375854,648.000732 
	C425.879181,659.938904 429.037781,671.523438 434.783875,682.650391 
	C374.455139,682.999329 314.076874,682.999329 253.858643,682.999329 
	C261.425079,676.978516 269.200195,671.228271 276.438293,664.866943 
	C280.728424,661.096436 284.430237,656.558228 287.897888,651.986938 
	C289.989746,649.229309 292.017303,647.914856 295.585327,647.924805 
	C338.029388,648.042664 380.473938,648.000793 423.375854,648.000732 
z"/>
<path fill="#DF0303" opacity="1.000000" stroke="none" 
	d="
M46.682350,622.275391 
	C49.540733,624.206177 52.097553,625.916748 54.998344,627.857422 
	C54.998344,634.059448 54.998344,640.701050 54.998344,648.000732 
	C63.442368,648.000732 71.714867,648.329590 79.947807,647.900085 
	C86.938477,647.535339 92.896088,649.190247 98.939995,652.854370 
	C114.433739,662.247192 130.319824,670.992554 146.032715,680.025146 
	C147.232727,680.714966 148.304321,681.628174 149.913788,682.779724 
	C107.466003,682.779724 65.596153,682.779724 23.363438,682.779724 
	C23.363438,655.801331 23.363438,628.738464 23.363438,602.734924 
	C30.587952,608.799011 38.484371,615.427002 46.682350,622.275391 
z"/>
<path fill="#DF0303" opacity="1.000000" stroke="none" 
	d="
M35.964493,311.795197 
	C34.624531,319.756989 33.274960,327.265869 32.008018,334.788666 
	C30.065449,346.323212 28.129839,357.859406 26.290644,369.410675 
	C25.347017,375.337250 24.618727,381.298157 23.301437,387.216553 
	C23.301437,329.003784 23.301437,270.791016 23.301437,212.289307 
	C41.988590,212.289307 60.690292,212.289307 78.251724,212.289307 
	C71.385109,220.390121 63.531212,228.660187 56.845074,237.785843 
	C47.697800,250.270569 43.198418,264.772369 40.946114,280.040253 
	C39.548683,289.513092 37.667034,298.914185 36.045307,308.354797 
	C35.878288,309.327087 36.002705,310.349426 35.964493,311.795197 
z"/>
<path fill="#EEEEEE" opacity="1.000000" stroke="none" 
	d="
M482.833466,563.999939 
	C491.652344,556.910645 500.996307,550.791992 512.600220,547.834473 
	C512.600220,602.990723 512.600220,657.871582 512.600220,713.741699 
	C494.016602,709.232056 480.752075,697.830444 469.589233,683.403015 
	C474.183472,683.018982 478.443390,683.018982 482.833466,683.018982 
	C482.833466,642.968384 482.833466,603.484192 482.833466,563.999939 
z"/>
<path fill="#DF0303" opacity="1.000000" stroke="none" 
	d="
M482.537506,564.137207 
	C482.833466,603.484192 482.833466,642.968384 482.833466,683.018982 
	C478.443390,683.018982 474.183472,683.018982 469.461914,683.092651 
	C458.832581,670.038574 453.414459,655.164856 451.945312,638.633789 
	C449.457092,610.636414 459.028015,587.337524 478.712738,567.789368 
	C479.890778,566.619568 481.065338,565.446167 482.537506,564.137207 
z"/>
<path fill="#020D3A" opacity="1.000000" stroke="none" 
	d="
M608.000977,537.166321 
	C628.217346,552.383911 642.314880,571.956238 649.979980,596.114685 
	C654.235962,609.528564 655.624023,623.295227 654.920959,637.290039 
	C654.859924,638.505859 653.989319,640.229675 652.986755,640.763367 
	C644.386658,645.341858 635.206665,647.827454 624.955566,648.048035 
	C629.270447,626.280701 625.607422,606.089844 614.773254,587.397217 
	C603.968689,568.755676 588.262695,555.618469 567.219482,548.112427 
	C572.591797,538.586243 580.028320,531.619629 589.817627,526.578735 
	C596.303040,530.280273 602.151978,533.723328 608.000977,537.166321 
z"/>
<path fill="#DF0303" opacity="1.000000" stroke="none" 
	d="
M608.464966,537.092407 
	C602.151978,533.723328 596.303040,530.280273 590.198669,526.544556 
	C599.910889,520.371826 610.915466,517.328125 622.250610,517.212219 
	C635.576111,517.075867 648.137817,521.042603 659.230835,528.782471 
	C662.511597,531.071533 665.570496,533.678711 669.859009,537.018555 
	C648.632080,537.018555 628.780457,537.018555 608.464966,537.092407 
z"/>
<path fill="#010C3A" opacity="1.000000" stroke="none" 
	d="
M301.170258,291.276001 
	C302.822662,274.266235 304.339111,257.700073 306.078308,241.157364 
	C307.026428,232.138931 308.532990,223.179031 309.471924,214.159851 
	C311.758453,192.195770 313.612213,170.184250 316.105621,148.244736 
	C318.699951,125.416946 323.549652,103.257004 338.585968,84.777634 
	C353.822235,66.052597 373.681274,56.410854 397.651276,56.094967 
	C429.470245,55.675636 461.299622,55.798912 493.122620,55.997566 
	C527.477661,56.212029 557.487976,76.664146 569.816223,108.677597 
	C593.660339,170.595108 617.358765,232.570740 640.704834,294.677368 
	C657.380005,339.037598 634.092896,387.083923 589.196777,402.240997 
	C526.179932,423.515686 463.185059,444.855377 400.147491,466.068451 
	C347.174408,483.894684 290.960052,444.424774 291.160919,389.265717 
	C291.202942,377.723053 293.278351,366.184082 294.482056,354.650208 
	C296.671234,333.673889 298.909393,312.702728 301.170258,291.276001 
z"/>
</svg>