<?xml version="1.0" standalone="no"?>
<!DOCTYPE svg PUBLIC "-//W3C//DTD SVG 20010904//EN"
 "http://www.w3.org/TR/2001/REC-SVG-20010904/DTD/svg10.dtd">
<svg version="1.0" xmlns="http://www.w3.org/2000/svg"
 width="300.000000pt" height="316.000000pt" viewBox="0 0 300.000000 316.000000"
 preserveAspectRatio="xMidYMid meet">
<metadata>
Created by potrace 1.10, written by Peter Selinger 2001-2011
</metadata>
<g transform="translate(0.000000,316.000000) scale(0.100000,-0.100000)"
fill="#000000" stroke="none">
<path d="M1549 3136 c-73 -28 -116 -56 -166 -108 -59 -63 -95 -129 -117 -214
-13 -50 -54 -397 -73 -617 -5 -55 -9 -67 -22 -63 -9 3 -122 26 -251 52 -186
36 -249 45 -302 42 -131 -10 -257 -95 -313 -214 -37 -79 -189 -1004 -181
-1111 6 -95 48 -185 115 -245 49 -44 429 -269 505 -299 139 -56 290 -17 411
105 28 28 125 155 218 282 l167 231 53 6 c57 7 1087 352 1158 387 64 33 141
116 179 194 30 61 35 81 38 166 5 113 25 49 -222 700 -98 256 -189 485 -203
509 -44 76 -101 129 -181 169 l-76 37 -350 2 c-272 2 -359 -1 -387 -11z m728
-32 c91 -30 149 -68 196 -127 45 -56 57 -79 117 -243 29 -77 58 -152 65 -169
7 -16 43 -111 80 -210 36 -99 70 -189 75 -200 20 -46 84 -214 102 -270 68
-206 -22 -414 -215 -500 -32 -14 -59 -25 -62 -25 -3 0 -10 -2 -17 -5 -7 -2
-150 -50 -318 -105 -168 -56 -314 -106 -325 -111 -41 -19 -362 -118 -400 -124
-44 -6 -91 -45 -132 -109 -14 -22 -34 -49 -44 -60 -11 -11 -19 -24 -19 -30 0
-5 -3 -7 -6 -3 -3 3 17 40 45 83 28 42 51 80 51 83 -1 18 -33 42 -96 74 -70
35 -155 114 -180 168 -43 89 -61 168 -48 203 9 23 24 20 24 -5 0 -36 32 -120
65 -168 47 -68 132 -133 209 -158 99 -32 181 -28 313 14 59 19 117 39 128 44
11 5 43 16 70 23 147 41 688 232 734 259 70 42 133 120 166 208 24 62 27 81
23 157 -3 59 -13 109 -30 157 -42 114 -188 498 -198 520 -5 11 -20 49 -34 85
-114 304 -133 340 -208 405 -105 90 -165 103 -477 105 -139 0 -272 -4 -306
-11 -75 -13 -157 -58 -212 -115 -41 -43 -103 -156 -103 -188 0 -9 -5 -16 -10
-16 -19 0 6 102 42 173 24 49 92 123 139 153 40 25 122 53 184 63 22 3 151 5
287 4 236 -3 250 -4 325 -29z m-87 -65 c124 -20 230 -89 283 -186 31 -57 360
-918 378 -988 37 -147 -36 -322 -172 -412 -20 -13 -263 -100 -540 -194 l-504
-171 -77 5 c-185 12 -339 149 -366 327 -6 43 6 185 54 635 34 319 67 609 74
645 33 186 162 319 329 340 88 12 469 11 541 -1z m-1445 -853 c39 -8 150 -31
247 -50 149 -30 181 -34 198 -24 11 7 20 16 20 21 0 4 5 5 11 1 11 -6 6 -120
-5 -132 -4 -3 -17 5 -31 18 -23 21 -97 41 -280 75 -16 3 -65 13 -108 21 -89
18 -179 8 -251 -28 -56 -27 -133 -103 -161 -158 -20 -40 -62 -239 -86 -410 -4
-30 -14 -93 -22 -140 -9 -47 -18 -107 -22 -135 -3 -27 -13 -88 -21 -135 -38
-198 15 -337 163 -433 38 -25 102 -64 143 -87 41 -23 91 -51 110 -62 19 -11
40 -23 45 -27 6 -4 40 -20 77 -36 58 -24 76 -27 141 -23 98 6 169 41 253 123
35 35 64 61 64 58 0 -3 -16 -29 -35 -58 -48 -71 -113 -129 -182 -163 -51 -23
-70 -27 -148 -26 -102 1 -88 -5 -350 146 -238 137 -281 171 -325 257 -24 48
-30 80 -31 156 0 61 2 80 46 355 14 85 35 214 46 285 65 402 74 435 140 503
55 58 104 89 169 106 71 19 99 19 185 2z m215 -137 c113 -23 206 -42 208 -44
2 -2 -11 -133 -28 -292 -21 -186 -30 -311 -26 -352 11 -131 108 -271 229 -331
33 -16 69 -30 80 -30 12 0 17 -5 14 -13 -10 -26 -260 -363 -301 -405 -48 -50
-138 -98 -201 -107 -79 -12 -139 9 -339 123 -103 59 -210 126 -236 149 -50 45
-93 126 -105 199 -9 61 127 900 156 956 32 63 57 93 105 128 101 72 164 75
444 19z m376 -1292 c-14 -17 -32 -40 -41 -49 -8 -10 -15 -22 -15 -26 0 -5 -10
-17 -21 -28 -31 -27 -21 -8 41 78 30 42 57 72 58 67 2 -5 -8 -24 -22 -42z"/>
<path d="M1603 2915 c-130 -36 -224 -144 -252 -290 -6 -27 -36 -292 -67 -588
-63 -597 -63 -591 -4 -694 56 -97 189 -173 304 -173 49 0 918 288 982 325 51
30 96 80 131 148 25 46 28 63 28 147 l0 95 -163 423 c-89 233 -173 440 -186
461 -35 54 -100 107 -165 133 -52 21 -74 23 -306 25 -194 2 -262 -1 -302 -12z
m574 -36 c102 -34 175 -104 208 -201 9 -24 22 -56 29 -73 7 -16 32 -82 56
-145 23 -63 66 -177 96 -252 30 -75 54 -140 54 -143 0 -9 48 -133 63 -164 7
-13 12 -65 12 -115 -1 -82 -3 -95 -29 -136 -32 -50 -92 -116 -119 -131 -23
-13 -196 -76 -272 -99 -57 -18 -105 -34 -150 -50 -11 -5 -65 -22 -120 -40 -55
-18 -113 -38 -130 -44 -67 -27 -164 -58 -225 -72 -75 -17 -155 -7 -218 28 -55
30 -118 95 -137 142 -10 22 -22 51 -27 63 -11 23 -6 134 11 263 15 117 20 168
27 270 3 52 10 109 14 125 5 17 10 62 11 100 1 39 6 77 10 87 5 9 9 47 9 85 1
68 6 103 35 244 28 134 99 220 218 260 78 26 492 25 574 -2z"/>
<path d="M2153 965 c-150 -41 -277 -157 -330 -301 -87 -240 16 -498 243 -611
l78 -38 136 0 136 0 78 38 c99 49 172 121 220 218 20 39 35 74 33 75 -2 2 -19
-1 -38 -6 -18 -6 -47 -10 -64 -10 -25 0 -34 -7 -49 -35 -51 -95 -173 -166
-297 -173 -155 -9 -285 67 -355 208 -33 66 -44 192 -24 267 41 143 182 255
336 267 48 3 58 8 73 32 10 16 28 38 40 49 21 18 21 20 4 26 -31 13 -165 8
-220 -6z m147 -34 c0 -15 -10 -19 -88 -35 -290 -60 -425 -343 -291 -608 23
-45 108 -132 151 -154 149 -77 307 -71 435 17 43 30 71 58 121 119 12 15 25
21 36 17 15 -6 14 -12 -12 -49 -65 -94 -139 -144 -278 -190 l-96 -31 -71 22
c-146 46 -233 104 -299 200 -164 236 -49 585 222 675 82 26 170 35 170 17z"/>
<path d="M2440 894 c-22 -20 -40 -39 -40 -43 1 -3 23 -16 50 -29 56 -26 121
-87 156 -148 31 -52 55 -166 47 -218 l-6 -39 37 7 c21 4 49 12 63 19 25 11 25
13 19 83 -12 149 -81 274 -199 361 -33 23 -65 43 -73 43 -8 0 -32 -16 -54 -36z
m148 -81 c45 -44 78 -89 96 -127 33 -70 55 -181 38 -198 -17 -17 -32 0 -32 37
0 98 -71 225 -166 297 -30 22 -51 44 -48 49 13 22 49 4 112 -58z"/>
</g>
</svg>
